<?xml version="1.0" encoding="UTF-8"?>
<svg xmlns="http://www.w3.org/2000/svg" version="1.1" width="100" height="100" viewBox="0 0 100 100"><rect x="0" y="0" width="100" height="100" fill="#ffffff"/><g transform="scale(3.448)"><g transform="translate(0,0)"><path fill-rule="evenodd" d="M9 0L9 1L8 1L8 2L9 2L9 3L8 3L8 4L10 4L10 7L11 7L11 4L12 4L12 5L13 5L13 6L12 6L12 9L13 9L13 8L14 8L14 9L15 9L15 10L17 10L17 9L19 9L19 10L18 10L18 12L17 12L17 11L16 11L16 12L17 12L17 13L19 13L19 14L20 14L20 15L22 15L22 14L23 14L23 13L24 13L24 16L23 16L23 17L22 17L22 16L20 16L20 17L19 17L19 15L18 15L18 16L16 16L16 13L12 13L12 11L13 11L13 10L11 10L11 11L10 11L10 9L11 9L11 8L6 8L6 9L7 9L7 10L6 10L6 11L5 11L5 12L4 12L4 11L1 11L1 10L2 10L2 9L5 9L5 8L0 8L0 11L1 11L1 12L2 12L2 13L1 13L1 14L2 14L2 17L0 17L0 21L1 21L1 18L2 18L2 19L4 19L4 20L2 20L2 21L5 21L5 19L7 19L7 20L6 20L6 21L7 21L7 20L8 20L8 19L9 19L9 18L10 18L10 20L9 20L9 21L8 21L8 23L9 23L9 24L8 24L8 29L9 29L9 28L10 28L10 27L9 27L9 24L10 24L10 25L11 25L11 21L12 21L12 22L13 22L13 23L12 23L12 25L13 25L13 24L14 24L14 25L19 25L19 26L18 26L18 28L16 28L16 26L15 26L15 27L14 27L14 28L15 28L15 29L19 29L19 27L21 27L21 28L22 28L22 27L23 27L23 26L24 26L24 29L27 29L27 28L28 28L28 26L29 26L29 25L28 25L28 24L25 24L25 23L26 23L26 21L27 21L27 20L28 20L28 22L29 22L29 20L28 20L28 18L29 18L29 17L28 17L28 14L29 14L29 12L28 12L28 10L29 10L29 9L28 9L28 8L27 8L27 9L28 9L28 10L27 10L27 12L25 12L25 11L26 11L26 10L25 10L25 9L26 9L26 8L25 8L25 9L24 9L24 8L23 8L23 9L22 9L22 8L21 8L21 5L20 5L20 4L21 4L21 3L20 3L20 4L19 4L19 1L20 1L20 0L19 0L19 1L17 1L17 0L15 0L15 1L17 1L17 2L16 2L16 4L12 4L12 2L13 2L13 1L11 1L11 2L10 2L10 0ZM14 2L14 3L15 3L15 2ZM17 2L17 3L18 3L18 2ZM10 3L10 4L11 4L11 3ZM16 4L16 5L17 5L17 7L16 7L16 6L15 6L15 7L14 7L14 6L13 6L13 7L14 7L14 8L15 8L15 7L16 7L16 9L17 9L17 8L18 8L18 5L19 5L19 7L20 7L20 5L19 5L19 4ZM8 5L8 7L9 7L9 5ZM19 8L19 9L20 9L20 10L19 10L19 13L20 13L20 14L22 14L22 13L23 13L23 12L24 12L24 13L25 13L25 12L24 12L24 11L25 11L25 10L24 10L24 9L23 9L23 11L20 11L20 10L22 10L22 9L20 9L20 8ZM7 10L7 11L6 11L6 12L5 12L5 13L4 13L4 12L3 12L3 13L2 13L2 14L3 14L3 13L4 13L4 14L5 14L5 16L4 16L4 19L5 19L5 18L7 18L7 17L5 17L5 16L7 16L7 15L8 15L8 13L6 13L6 12L9 12L9 11L8 11L8 10ZM14 11L14 12L15 12L15 11ZM10 12L10 13L9 13L9 14L10 14L10 15L9 15L9 17L11 17L11 18L13 18L13 19L12 19L12 21L16 21L16 23L14 23L14 24L16 24L16 23L17 23L17 24L19 24L19 25L20 25L20 26L21 26L21 27L22 27L22 26L23 26L23 25L22 25L22 26L21 26L21 25L20 25L20 23L19 23L19 22L17 22L17 21L18 21L18 20L19 20L19 21L20 21L20 20L21 20L21 18L22 18L22 20L24 20L24 17L25 17L25 16L27 16L27 14L28 14L28 13L26 13L26 15L25 15L25 16L24 16L24 17L23 17L23 18L22 18L22 17L20 17L20 18L19 18L19 17L14 17L14 16L15 16L15 15L14 15L14 16L13 16L13 17L12 17L12 15L13 15L13 14L12 14L12 13L11 13L11 12ZM20 12L20 13L22 13L22 12ZM10 13L10 14L11 14L11 13ZM6 14L6 15L7 15L7 14ZM0 15L0 16L1 16L1 15ZM2 17L2 18L3 18L3 17ZM26 17L26 19L25 19L25 20L27 20L27 18L28 18L28 17ZM15 18L15 19L14 19L14 20L17 20L17 18ZM18 18L18 19L19 19L19 18ZM9 21L9 22L10 22L10 21ZM21 21L21 24L24 24L24 21ZM22 22L22 23L23 23L23 22ZM24 25L24 26L26 26L26 27L25 27L25 28L27 28L27 26L26 26L26 25ZM11 26L11 29L12 29L12 27L13 27L13 26ZM0 0L0 7L7 7L7 0ZM1 1L1 6L6 6L6 1ZM2 2L2 5L5 5L5 2ZM22 0L22 7L29 7L29 0ZM23 1L23 6L28 6L28 1ZM24 2L24 5L27 5L27 2ZM0 22L0 29L7 29L7 22ZM1 23L1 28L6 28L6 23ZM2 24L2 27L5 27L5 24Z" fill="#000000"/></g></g></svg>
