<?xml version="1.0" encoding="UTF-8"?>
<svg xmlns="http://www.w3.org/2000/svg" version="1.1" width="100" height="100" viewBox="0 0 100 100"><rect x="0" y="0" width="100" height="100" fill="#ffffff"/><g transform="scale(3.448)"><g transform="translate(0,0)"><path fill-rule="evenodd" d="M8 0L8 1L10 1L10 0ZM15 0L15 1L14 1L14 2L11 2L11 4L10 4L10 3L9 3L9 2L8 2L8 5L9 5L9 6L8 6L8 7L9 7L9 8L8 8L8 9L7 9L7 8L6 8L6 9L4 9L4 8L0 8L0 10L1 10L1 11L0 11L0 12L1 12L1 11L2 11L2 9L3 9L3 10L4 10L4 11L3 11L3 12L4 12L4 13L7 13L7 12L5 12L5 10L6 10L6 11L8 11L8 12L9 12L9 13L8 13L8 15L7 15L7 14L5 14L5 16L4 16L4 14L3 14L3 13L2 13L2 14L0 14L0 15L2 15L2 14L3 14L3 18L2 18L2 20L1 20L1 21L7 21L7 20L10 20L10 21L8 21L8 22L10 22L10 23L14 23L14 22L16 22L16 21L17 21L17 23L18 23L18 24L16 24L16 23L15 23L15 24L14 24L14 26L13 26L13 24L12 24L12 25L11 25L11 27L10 27L10 26L9 26L9 25L10 25L10 24L9 24L9 25L8 25L8 29L9 29L9 28L12 28L12 29L13 29L13 28L12 28L12 26L13 26L13 27L14 27L14 29L15 29L15 28L16 28L16 29L17 29L17 28L16 28L16 27L17 27L17 26L20 26L20 27L21 27L21 28L20 28L20 29L22 29L22 26L21 26L21 25L24 25L24 26L25 26L25 25L28 25L28 27L27 27L27 29L28 29L28 27L29 27L29 25L28 25L28 24L29 24L29 23L28 23L28 22L29 22L29 21L28 21L28 20L27 20L27 19L28 19L28 17L27 17L27 19L26 19L26 18L24 18L24 19L23 19L23 20L21 20L21 19L22 19L22 17L21 17L21 19L20 19L20 20L19 20L19 17L18 17L18 19L17 19L17 16L16 16L16 15L17 15L17 14L19 14L19 15L18 15L18 16L19 16L19 15L21 15L21 14L22 14L22 15L23 15L23 14L24 14L24 12L23 12L23 11L25 11L25 14L28 14L28 15L27 15L27 16L28 16L28 15L29 15L29 11L28 11L28 12L26 12L26 11L27 11L27 10L25 10L25 9L27 9L27 8L24 8L24 10L23 10L23 9L22 9L22 8L19 8L19 10L20 10L20 13L19 13L19 12L17 12L17 14L16 14L16 15L15 15L15 14L14 14L14 13L13 13L13 14L12 14L12 12L16 12L16 10L17 10L17 11L18 11L18 10L17 10L17 9L18 9L18 7L19 7L19 6L20 6L20 7L21 7L21 6L20 6L20 5L21 5L21 3L20 3L20 2L21 2L21 1L20 1L20 0L19 0L19 1L20 1L20 2L18 2L18 1L17 1L17 0ZM16 1L16 3L12 3L12 5L10 5L10 6L9 6L9 7L10 7L10 8L9 8L9 9L8 9L8 11L9 11L9 12L10 12L10 13L11 13L11 11L14 11L14 10L15 10L15 9L16 9L16 8L17 8L17 7L18 7L18 6L19 6L19 5L17 5L17 4L16 4L16 3L18 3L18 2L17 2L17 1ZM19 3L19 4L20 4L20 3ZM13 4L13 5L12 5L12 7L11 7L11 6L10 6L10 7L11 7L11 8L12 8L12 7L13 7L13 9L15 9L15 5L14 5L14 4ZM13 5L13 7L14 7L14 5ZM16 6L16 7L17 7L17 6ZM28 8L28 10L29 10L29 8ZM6 9L6 10L7 10L7 9ZM9 9L9 10L10 10L10 9ZM20 9L20 10L21 10L21 11L22 11L22 9ZM22 12L22 13L23 13L23 12ZM9 14L9 15L10 15L10 16L12 16L12 17L9 17L9 16L8 16L8 17L4 17L4 18L5 18L5 19L6 19L6 20L7 20L7 19L10 19L10 20L12 20L12 19L11 19L11 18L12 18L12 17L14 17L14 18L13 18L13 20L14 20L14 21L15 21L15 20L16 20L16 19L15 19L15 17L16 17L16 16L15 16L15 15L14 15L14 14L13 14L13 15L14 15L14 16L12 16L12 14L11 14L11 15L10 15L10 14ZM6 15L6 16L7 16L7 15ZM24 15L24 17L26 17L26 16L25 16L25 15ZM0 16L0 17L2 17L2 16ZM0 18L0 19L1 19L1 18ZM6 18L6 19L7 19L7 18ZM24 19L24 20L25 20L25 21L26 21L26 22L28 22L28 21L26 21L26 19ZM17 20L17 21L19 21L19 20ZM11 21L11 22L12 22L12 21ZM21 21L21 24L24 24L24 21ZM22 22L22 23L23 23L23 22ZM26 23L26 24L27 24L27 23ZM19 24L19 25L20 25L20 24ZM16 25L16 26L14 26L14 27L16 27L16 26L17 26L17 25ZM18 27L18 28L19 28L19 27ZM24 27L24 28L23 28L23 29L24 29L24 28L25 28L25 29L26 29L26 28L25 28L25 27ZM0 0L0 7L7 7L7 0ZM1 1L1 6L6 6L6 1ZM2 2L2 5L5 5L5 2ZM22 0L22 7L29 7L29 0ZM23 1L23 6L28 6L28 1ZM24 2L24 5L27 5L27 2ZM0 22L0 29L7 29L7 22ZM1 23L1 28L6 28L6 23ZM2 24L2 27L5 27L5 24Z" fill="#000000"/></g></g></svg>
