<?xml version="1.0" encoding="UTF-8"?>
<svg xmlns="http://www.w3.org/2000/svg" version="1.1" width="100" height="100" viewBox="0 0 100 100"><rect x="0" y="0" width="100" height="100" fill="#ffffff"/><g transform="scale(3.448)"><g transform="translate(0,0)"><path fill-rule="evenodd" d="M9 0L9 1L8 1L8 2L9 2L9 3L8 3L8 4L10 4L10 7L11 7L11 4L12 4L12 5L13 5L13 6L12 6L12 9L13 9L13 8L14 8L14 9L15 9L15 10L17 10L17 9L19 9L19 10L18 10L18 12L17 12L17 11L16 11L16 12L17 12L17 13L19 13L19 14L18 14L18 15L19 15L19 14L20 14L20 15L22 15L22 14L23 14L23 13L24 13L24 16L23 16L23 17L22 17L22 16L20 16L20 17L19 17L19 16L16 16L16 13L12 13L12 11L13 11L13 10L11 10L11 11L10 11L10 9L11 9L11 8L6 8L6 9L5 9L5 8L0 8L0 9L2 9L2 11L3 11L3 13L2 13L2 12L0 12L0 14L1 14L1 15L2 15L2 16L3 16L3 15L4 15L4 14L5 14L5 13L7 13L7 12L8 12L8 15L9 15L9 14L11 14L11 13L12 13L12 14L13 14L13 15L12 15L12 17L13 17L13 16L14 16L14 17L19 17L19 18L18 18L18 19L19 19L19 18L20 18L20 17L22 17L22 18L21 18L21 20L20 20L20 21L19 21L19 20L18 20L18 21L17 21L17 22L19 22L19 23L20 23L20 25L19 25L19 24L17 24L17 23L16 23L16 21L12 21L12 19L13 19L13 18L11 18L11 19L10 19L10 18L9 18L9 17L8 17L8 16L6 16L6 17L7 17L7 18L5 18L5 17L2 17L2 19L3 19L3 20L4 20L4 21L7 21L7 20L9 20L9 21L8 21L8 23L10 23L10 22L9 22L9 21L12 21L12 22L13 22L13 23L12 23L12 25L13 25L13 24L14 24L14 25L19 25L19 26L18 26L18 28L16 28L16 26L15 26L15 27L14 27L14 28L15 28L15 29L19 29L19 27L21 27L21 28L22 28L22 27L23 27L23 26L24 26L24 29L27 29L27 28L28 28L28 26L29 26L29 25L28 25L28 24L25 24L25 23L26 23L26 21L27 21L27 20L28 20L28 22L29 22L29 20L28 20L28 18L29 18L29 17L28 17L28 14L29 14L29 12L28 12L28 10L29 10L29 9L28 9L28 8L27 8L27 9L28 9L28 10L27 10L27 12L25 12L25 11L26 11L26 10L25 10L25 9L26 9L26 8L25 8L25 9L24 9L24 8L23 8L23 9L22 9L22 8L20 8L20 7L21 7L21 5L20 5L20 4L21 4L21 3L20 3L20 4L19 4L19 3L17 3L17 2L16 2L16 4L12 4L12 2L13 2L13 1L11 1L11 2L10 2L10 0ZM15 0L15 1L17 1L17 0ZM19 0L19 1L18 1L18 2L19 2L19 1L20 1L20 0ZM14 2L14 3L15 3L15 2ZM10 3L10 4L11 4L11 3ZM16 4L16 5L17 5L17 7L16 7L16 6L15 6L15 7L14 7L14 6L13 6L13 7L14 7L14 8L15 8L15 7L16 7L16 9L17 9L17 8L18 8L18 5L19 5L19 7L20 7L20 5L19 5L19 4ZM8 5L8 7L9 7L9 5ZM19 8L19 9L20 9L20 10L19 10L19 11L21 11L21 12L22 12L22 13L20 13L20 12L19 12L19 13L20 13L20 14L22 14L22 13L23 13L23 12L24 12L24 13L25 13L25 12L24 12L24 11L25 11L25 10L24 10L24 9L23 9L23 11L21 11L21 10L22 10L22 9L20 9L20 8ZM3 9L3 11L4 11L4 9ZM6 9L6 10L5 10L5 11L6 11L6 12L7 12L7 11L6 11L6 10L7 10L7 9ZM8 10L8 12L9 12L9 10ZM14 11L14 12L15 12L15 11ZM10 12L10 13L11 13L11 12ZM1 13L1 14L2 14L2 15L3 15L3 14L2 14L2 13ZM26 13L26 15L25 15L25 16L24 16L24 17L23 17L23 18L22 18L22 20L24 20L24 17L25 17L25 16L27 16L27 14L28 14L28 13ZM6 14L6 15L7 15L7 14ZM14 15L14 16L15 16L15 15ZM0 17L0 21L1 21L1 17ZM26 17L26 19L25 19L25 20L27 20L27 18L28 18L28 17ZM7 18L7 19L4 19L4 20L7 20L7 19L8 19L8 18ZM15 18L15 19L14 19L14 20L17 20L17 18ZM9 19L9 20L10 20L10 19ZM21 21L21 24L24 24L24 21ZM22 22L22 23L23 23L23 22ZM14 23L14 24L16 24L16 23ZM8 24L8 29L9 29L9 27L10 27L10 25L11 25L11 24L10 24L10 25L9 25L9 24ZM20 25L20 26L21 26L21 27L22 27L22 26L23 26L23 25L22 25L22 26L21 26L21 25ZM24 25L24 26L26 26L26 27L25 27L25 28L27 28L27 26L26 26L26 25ZM11 26L11 29L12 29L12 27L13 27L13 26ZM0 0L0 7L7 7L7 0ZM1 1L1 6L6 6L6 1ZM2 2L2 5L5 5L5 2ZM22 0L22 7L29 7L29 0ZM23 1L23 6L28 6L28 1ZM24 2L24 5L27 5L27 2ZM0 22L0 29L7 29L7 22ZM1 23L1 28L6 28L6 23ZM2 24L2 27L5 27L5 24Z" fill="#000000"/></g></g></svg>
