<?xml version="1.0" encoding="UTF-8"?>
<svg xmlns="http://www.w3.org/2000/svg" version="1.1" width="100" height="100" viewBox="0 0 100 100"><rect x="0" y="0" width="100" height="100" fill="#ffffff"/><g transform="scale(4)"><g transform="translate(0,0)"><path fill-rule="evenodd" d="M11 0L11 1L10 1L10 3L9 3L9 2L8 2L8 3L9 3L9 6L8 6L8 8L4 8L4 9L7 9L7 10L6 10L6 11L8 11L8 12L6 12L6 13L5 13L5 14L3 14L3 12L5 12L5 10L3 10L3 8L0 8L0 10L1 10L1 12L2 12L2 14L3 14L3 15L1 15L1 14L0 14L0 15L1 15L1 16L0 16L0 17L1 17L1 16L5 16L5 17L8 17L8 21L9 21L9 22L8 22L8 25L9 25L9 24L10 24L10 25L11 25L11 24L12 24L12 23L13 23L13 25L15 25L15 20L16 20L16 21L17 21L17 23L16 23L16 25L17 25L17 24L18 24L18 21L20 21L20 23L21 23L21 24L19 24L19 25L22 25L22 23L23 23L23 25L25 25L25 24L24 24L24 23L25 23L25 20L24 20L24 19L25 19L25 17L24 17L24 15L25 15L25 12L24 12L24 11L25 11L25 9L24 9L24 11L23 11L23 8L22 8L22 9L21 9L21 10L20 10L20 9L19 9L19 8L17 8L17 9L18 9L18 11L17 11L17 10L16 10L16 11L15 11L15 8L16 8L16 7L17 7L17 4L16 4L16 5L15 5L15 6L14 6L14 5L13 5L13 2L14 2L14 3L15 3L15 2L17 2L17 0L15 0L15 2L14 2L14 1L13 1L13 0ZM12 1L12 2L11 2L11 3L10 3L10 4L11 4L11 3L12 3L12 2L13 2L13 1ZM12 5L12 6L11 6L11 7L12 7L12 8L11 8L11 11L10 11L10 10L9 10L9 9L8 9L8 11L10 11L10 12L8 12L8 13L6 13L6 14L7 14L7 15L5 15L5 16L8 16L8 17L9 17L9 21L10 21L10 22L9 22L9 23L12 23L12 22L13 22L13 20L12 20L12 18L13 18L13 19L14 19L14 20L15 20L15 19L14 19L14 18L13 18L13 16L11 16L11 20L10 20L10 16L8 16L8 15L12 15L12 14L13 14L13 13L12 13L12 14L11 14L11 13L10 13L10 12L11 12L11 11L14 11L14 10L13 10L13 7L14 7L14 6L13 6L13 5ZM9 6L9 7L10 7L10 6ZM12 6L12 7L13 7L13 6ZM15 6L15 7L16 7L16 6ZM2 10L2 11L3 11L3 10ZM19 10L19 11L18 11L18 12L17 12L17 11L16 11L16 12L15 12L15 14L14 14L14 15L16 15L16 16L15 16L15 18L16 18L16 16L17 16L17 15L18 15L18 16L19 16L19 15L18 15L18 12L19 12L19 11L20 11L20 14L21 14L21 11L22 11L22 14L23 14L23 15L22 15L22 17L21 17L21 18L24 18L24 17L23 17L23 15L24 15L24 12L23 12L23 11L22 11L22 10L21 10L21 11L20 11L20 10ZM8 13L8 14L10 14L10 13ZM17 17L17 20L20 20L20 17ZM18 18L18 19L19 19L19 18ZM22 19L22 21L21 21L21 22L23 22L23 23L24 23L24 22L23 22L23 21L24 21L24 20L23 20L23 19ZM0 0L0 7L7 7L7 0ZM1 1L1 6L6 6L6 1ZM2 2L2 5L5 5L5 2ZM18 0L18 7L25 7L25 0ZM19 1L19 6L24 6L24 1ZM20 2L20 5L23 5L23 2ZM0 18L0 25L7 25L7 18ZM1 19L1 24L6 24L6 19ZM2 20L2 23L5 23L5 20Z" fill="#000000"/></g></g></svg>
